<svg width="113" height="98" viewBox="0 0 113 98" fill="none" xmlns="http://www.w3.org/2000/svg">
<style>
    path {
      fill: #464646;
    }
    @media (prefers-color-scheme: dark) {
      path {
        fill: #ebebeb; 
      }
    }
  </style>
<path d="M101 49.3361C101 57.3191 98.9519 65.179 95.037 72.2194C91.1222 79.2598 85.4615 85.2635 78.5563 89.6986C71.6511 94.1337 63.7147 96.8634 55.4499 97.6459C47.1851 98.4284 38.8471 97.2395 31.1745 94.1845C23.5019 91.1295 16.7315 86.3028 11.463 80.1318C6.19448 73.9608 2.59053 66.6361 0.970344 58.8065C-0.649838 50.9769 -0.236236 42.884 2.17451 35.2447C4.58526 27.6054 8.91874 20.6555 14.7911 15.0107L50.5 49.3361H101Z" fill="#ebebeb"/>
<path d="M51.7717 6.44296V51.563H39.2277V6.44296H51.7717ZM91.2992 6.44296V16.427H79.2672V51.563H66.7232V16.427H54.8192V6.44296H91.2992Z" fill="#ebebeb"/>
</svg>
